<svg xmlns="http://www.w3.org/2000/svg" viewBox="0 0 720 340" width="720" height="340" role="img">

<style>
  .stroke { fill: none; stroke: var(--ec-stroke); stroke-width: 2; stroke-linecap: round; stroke-linejoin: round; }
  .thin { stroke-width: 1.5; }
  .divider { fill: none; stroke: var(--ec-divider); stroke-width: 2; }
  .divider-thin { fill: none; stroke: var(--ec-divider); stroke-width: 1.5; }
  .fill-light { fill: var(--ec-fill-neutral); stroke: var(--ec-stroke); stroke-width: 1.5; }
  .fill-blue { fill: var(--ec-fill-blue); stroke: var(--ec-blue); stroke-width: 1.5; }
  .fill-red { fill: var(--ec-fill-red); stroke: var(--ec-red); stroke-width: 1.5; }
  .fill-green { fill: var(--ec-fill-green); stroke: var(--ec-green); stroke-width: 1.5; }
  .fill-yellow { fill: var(--ec-fill-yellow); stroke: var(--ec-yellow); stroke-width: 1.5; }
  .label { font: 14px ui-sans-serif, system-ui, sans-serif; fill: var(--ec-text); }
  .small { font-size: 12px; fill: var(--ec-muted); }
  .title { font: 600 15px ui-sans-serif, system-ui, sans-serif; fill: var(--ec-title); }
  .accent-blue { stroke: var(--ec-blue); fill: none; }
  .accent-blue-fill { fill: var(--ec-blue); stroke: none; }
  .accent-red { stroke: var(--ec-red); fill: none; }
  .accent-red-fill { fill: var(--ec-red); stroke: none; }
  .accent-green { stroke: var(--ec-green); fill: none; }
  .accent-green-fill { fill: var(--ec-green); stroke: none; }
  .text-blue { fill: var(--ec-blue); }
  .text-red { fill: var(--ec-red); }
  .seg-on { stroke: var(--ec-red); fill: none; stroke-width: 4; }
  .seg-off { stroke: var(--ec-green); fill: none; stroke-width: 4; }
  .symbol-fill { fill: var(--ec-stroke); stroke: none; }
</style>


<text class="title" x="180" y="28" text-anchor="middle">串联</text>
<text class="title" x="540" y="28" text-anchor="middle">并联</text>
<line x1="360" y1="40" x2="360" y2="320" class="divider-thin"/>
<rect x="60" y="80" width="50" height="30" class="fill-yellow"/><line x1="110" y1="95" x2="140" y2="95" class="stroke"/>
<rect x="140" y="85" width="40" height="20" class="fill-light"/><text class="small" x="160" y="99" text-anchor="middle">R1</text>
<line x1="180" y1="95" x2="210" y2="95" class="stroke"/>
<rect x="210" y="85" width="40" height="20" class="fill-light"/><text class="small" x="230" y="99" text-anchor="middle">R2</text>
<line x1="250" y1="95" x2="300" y2="95" class="stroke"/>
<text class="small" x="180" y="140" text-anchor="middle">I 相同，U 分配</text>
<rect x="400" y="80" width="50" height="30" class="fill-yellow"/>
<line x1="450" y1="95" x2="500" y2="95" class="stroke"/>
<line x1="500" y1="95" x2="500" y2="70" class="stroke"/>
<line x1="500" y1="70" x2="580" y2="70" class="stroke"/>
<rect x="580" y="60" width="40" height="20" class="fill-light"/><text class="small" x="600" y="74" text-anchor="middle">R1</text>
<line x1="620" y1="70" x2="660" y2="70" class="stroke"/>
<line x1="660" y1="70" x2="660" y2="95" class="stroke"/>
<line x1="500" y1="95" x2="500" y2="120" class="stroke"/>
<line x1="500" y1="120" x2="580" y2="120" class="stroke"/>
<rect x="580" y="110" width="40" height="20" class="fill-light"/><text class="small" x="600" y="124" text-anchor="middle">R2</text>
<line x1="620" y1="120" x2="660" y2="120" class="stroke"/>
<line x1="660" y1="120" x2="660" y2="95" class="stroke"/>
<text class="small" x="540" y="160" text-anchor="middle">U 相同，I 分配</text>

</svg>
